<?xml version="1.0" encoding="utf-8"?>
<!-- Generator: Adobe Illustrator 16.0.3, SVG Export Plug-In . SVG Version: 6.00 Build 0)  -->
<!DOCTYPE svg PUBLIC "-//W3C//DTD SVG 1.1//EN" "http://www.w3.org/Graphics/SVG/1.1/DTD/svg11.dtd">
<svg version="1.1" id="Layer_1" xmlns="http://www.w3.org/2000/svg" xmlns:xlink="http://www.w3.org/1999/xlink" x="0px" y="0px"
	 width="340.2px" height="340.2px" viewBox="0 0 340.2 340.2" enable-background="new 0 0 340.2 340.2" xml:space="preserve">
<line fill="none" stroke="#231F20" stroke-width="4" stroke-miterlimit="10" x1="85.05" y1="28.35" x2="85.05" y2="311.85"/>
<line fill="none" stroke="#231F20" stroke-width="4" stroke-miterlimit="10" x1="141.75" y1="28.35" x2="141.75" y2="311.85"/>
<line fill="none" stroke="#231F20" stroke-width="4" stroke-miterlimit="10" x1="198.45" y1="28.35" x2="198.45" y2="311.85"/>
<line fill="none" stroke="#231F20" stroke-width="4" stroke-miterlimit="10" x1="255.15" y1="28.35" x2="255.15" y2="311.85"/>
<line fill="none" stroke="#231F20" stroke-width="4" stroke-miterlimit="10" x1="28.35" y1="85.05" x2="311.85" y2="85.05"/>
<line fill="none" stroke="#231F20" stroke-width="4" stroke-miterlimit="10" x1="28.35" y1="141.75" x2="311.85" y2="141.75"/>
<line fill="none" stroke="#231F20" stroke-width="4" stroke-miterlimit="10" x1="28.35" y1="198.45" x2="311.85" y2="198.45"/>
<line fill="none" stroke="#231F20" stroke-width="4" stroke-miterlimit="10" x1="28.35" y1="255.15" x2="311.85" y2="255.15"/>
<path fill="none" stroke="#231F20" stroke-width="4" stroke-miterlimit="10" d="M311.85,300.511c0,6.263-5.076,11.339-11.339,11.339
	H39.688c-6.262,0-11.338-5.076-11.338-11.339V39.688c0-6.262,5.077-11.338,11.338-11.338h260.823
	c6.263,0,11.339,5.077,11.339,11.338V300.511z"/>
<path fill="#F7941E" d="M124.74,133.245c0-9.413-2.267-17.629-5.638-22.052c1.718-1.556,2.803-3.797,2.803-6.298
	c0-4.697-3.808-8.505-8.505-8.505c-4.697,0-8.505,3.808-8.505,8.505c0,2.5,1.085,4.742,2.803,6.298
	c-3.371,4.422-5.638,12.639-5.638,22.052H124.74z"/>
<path fill="#00AEEF" d="M238.14,189.944c0-9.413-2.267-17.629-5.638-22.052c1.718-1.556,2.803-3.797,2.803-6.298
	c0-4.697-3.808-8.505-8.505-8.505c-4.697,0-8.505,3.808-8.505,8.505c0,2.5,1.085,4.742,2.803,6.298
	c-3.371,4.422-5.638,12.639-5.638,22.052H238.14z"/>
<polygon fill="#00AEEF" points="158.76,107.73 164.43,102.06 170.1,107.73 175.77,102.06 181.44,107.73 175.77,113.4 181.44,119.07 
	175.77,124.74 170.1,119.07 164.43,124.74 158.76,119.07 164.43,113.4 "/>
<polygon fill="#00AEEF" points="102.06,164.43 107.73,158.76 113.4,164.43 119.07,158.76 124.74,164.43 119.07,170.1 124.74,175.77 
	119.07,181.44 113.4,175.77 107.73,181.44 102.06,175.77 107.73,170.1 "/>
<polygon fill="#00AEEF" points="215.46,51.03 221.13,45.36 226.8,51.03 232.47,45.36 238.14,51.03 232.47,56.7 238.14,62.37 
	232.47,68.04 226.8,62.37 221.13,68.04 215.46,62.37 221.13,56.7 "/>
<polygon fill="#00AEEF" points="45.36,51.03 51.03,45.36 56.7,51.03 62.37,45.36 68.04,51.03 62.37,56.7 68.04,62.37 62.37,68.04 
	56.7,62.37 51.03,68.04 45.36,62.37 51.03,56.7 "/>
<polygon fill="#00AEEF" points="102.06,51.03 107.73,45.36 113.4,51.03 119.07,45.36 124.74,51.03 119.07,56.7 124.74,62.37 
	119.07,68.04 113.4,62.37 107.73,68.04 102.06,62.37 107.73,56.7 "/>
<polygon fill="#F7941E" points="158.76,164.43 164.43,158.76 170.1,164.43 175.77,158.76 181.44,164.43 175.77,170.1 181.44,175.77 
	175.77,181.44 170.1,175.77 164.43,181.44 158.76,175.77 164.43,170.1 "/>
<polygon fill="#F7941E" points="158.76,221.13 164.43,215.46 170.1,221.13 175.77,215.46 181.44,221.13 175.77,226.8 181.44,232.47 
	175.77,238.14 170.1,232.47 164.43,238.14 158.76,232.47 164.43,226.8 "/>
<polygon fill="#F7941E" points="215.46,107.73 221.13,102.06 226.8,107.73 232.47,102.06 238.14,107.73 232.47,113.4 238.14,119.07 
	232.47,124.74 226.8,119.07 221.13,124.74 215.46,119.07 221.13,113.4 "/>
<polygon fill="#F7941E" points="272.16,107.73 277.83,102.06 283.5,107.73 289.169,102.06 294.839,107.73 289.169,113.4 
	294.839,119.07 289.169,124.74 283.5,119.07 277.83,124.74 272.16,119.07 277.83,113.4 "/>
<polygon fill="#F7941E" points="215.46,277.83 221.13,272.16 226.8,277.83 232.47,272.16 238.14,277.83 232.47,283.5 
	238.14,289.169 232.47,294.839 226.8,289.169 221.13,294.839 215.46,289.169 221.13,283.5 "/>
<g>
</g>
<g>
</g>
<g>
</g>
<g>
</g>
<g>
</g>
<g>
</g>
</svg>
